<?xml version="1.0" encoding="UTF-8"?>
<svg xmlns="http://www.w3.org/2000/svg" width="760" height="268" viewBox="0 0 760 268" role="img" aria-label="Decompiled C 24.3% functions, 5.7% bytes (154/633, 5,160/90,272)">
  <title>Decompiled C 24.3% functions, 5.7% bytes (154/633, 5,160/90,272)</title>
  <rect width="760" height="268" rx="6" fill="#ffffff" stroke="#d0d7de"/>
  <text x="16" y="28" font-family='-apple-system,BlinkMacSystemFont,Segoe UI,Helvetica,Arial,sans-serif' font-size="16" font-weight="600" fill="#1f2328">Decompiled C vs original</text>
  <text x="744" y="28" text-anchor="end" font-family='ui-monospace,SFMono-Regular,Menlo,Consolas,monospace' font-size="16" font-weight="700" fill="#1a7f37">24.3%</text>
  <text x="16" y="70" font-family='-apple-system,BlinkMacSystemFont,Segoe UI,Helvetica,Arial,sans-serif' font-size="13" fill="#1f2328">Decompiled C — functions</text><rect x="200.00" y="56.00" width="460.00" height="18.00" rx="4" fill="#eaeef2"/><rect x="200.00" y="56.00" width="111.78" height="18.00" rx="4" fill="#1a7f37"/><text x="744" y="70" text-anchor="end" font-family='ui-monospace,SFMono-Regular,Menlo,Consolas,monospace' font-size="13" font-weight="700" fill="#1a7f37">24.3%</text><text x="16" y="100" font-family='-apple-system,BlinkMacSystemFont,Segoe UI,Helvetica,Arial,sans-serif' font-size="13" fill="#1f2328">Decompiled C — bytes</text><rect x="200.00" y="86.00" width="460.00" height="18.00" rx="4" fill="#eaeef2"/><rect x="200.00" y="86.00" width="26.22" height="18.00" rx="4" fill="#1a7f37"/><text x="744" y="100" text-anchor="end" font-family='ui-monospace,SFMono-Regular,Menlo,Consolas,monospace' font-size="13" font-weight="700" fill="#1a7f37">5.7%</text><text x="16" y="130" font-family='-apple-system,BlinkMacSystemFont,Segoe UI,Helvetica,Arial,sans-serif' font-size="13" fill="#1f2328">Not opcode — functions</text><rect x="200.00" y="116.00" width="460.00" height="18.00" rx="4" fill="#eaeef2"/><rect x="200.00" y="116.00" width="220.80" height="18.00" rx="4" fill="#0969da"/><text x="744" y="130" text-anchor="end" font-family='ui-monospace,SFMono-Regular,Menlo,Consolas,monospace' font-size="13" font-weight="700" fill="#0969da">48.0%</text><text x="16" y="160" font-family='-apple-system,BlinkMacSystemFont,Segoe UI,Helvetica,Arial,sans-serif' font-size="13" fill="#1f2328">Not opcode — bytes</text><rect x="200.00" y="146.00" width="460.00" height="18.00" rx="4" fill="#eaeef2"/><rect x="200.00" y="146.00" width="217.12" height="18.00" rx="4" fill="#0969da"/><text x="744" y="160" text-anchor="end" font-family='ui-monospace,SFMono-Regular,Menlo,Consolas,monospace' font-size="13" font-weight="700" fill="#0969da">47.2%</text><text x="16" y="200" font-family='-apple-system,BlinkMacSystemFont,Segoe UI,Helvetica,Arial,sans-serif' font-size="13" fill="#1f2328">Function mix</text><rect x="200.00" y="186.00" width="460.00" height="18.00" rx="4" fill="#eaeef2"/><rect x="200.00" y="186.00" width="111.91" height="18.00" fill="#1a7f37"/><rect x="311.91" y="186.00" width="109.00" height="18.00" fill="#0969da"/><rect x="420.92" y="186.00" width="239.08" height="18.00" fill="#8c959f"/><text x="16" y="230" font-family='-apple-system,BlinkMacSystemFont,Segoe UI,Helvetica,Arial,sans-serif' font-size="13" fill="#1f2328">Byte mix</text><rect x="200.00" y="216.00" width="460.00" height="18.00" rx="4" fill="#eaeef2"/><rect x="200.00" y="216.00" width="26.29" height="18.00" fill="#1a7f37"/><rect x="226.29" y="216.00" width="190.65" height="18.00" fill="#0969da"/><rect x="416.94" y="216.00" width="243.06" height="18.00" fill="#8c959f"/>
  <rect x="200" y="241" width="10" height="10" rx="2" fill="#1a7f37"/>
  <text x="216" y="250" font-family='-apple-system,BlinkMacSystemFont,Segoe UI,Helvetica,Arial,sans-serif' font-size="11" fill="#656d76">semantic C 154/633 (24.3%)</text>
  <rect x="400" y="241" width="10" height="10" rx="2" fill="#0969da"/>
  <text x="416" y="250" font-family='-apple-system,BlinkMacSystemFont,Segoe UI,Helvetica,Arial,sans-serif' font-size="11" fill="#656d76">readable Thumb 23.7%</text>
  <rect x="580" y="241" width="10" height="10" rx="2" fill="#8c959f"/>
  <text x="596" y="250" font-family='-apple-system,BlinkMacSystemFont,Segoe UI,Helvetica,Arial,sans-serif' font-size="11" fill="#656d76">opcode 52.0%</text>
</svg>
