<?xml version="1.0" encoding="UTF-8"?>
<svg xmlns="http://www.w3.org/2000/svg" width="760" height="268" viewBox="0 0 760 268" role="img" aria-label="Decompiled C 21.5% functions, 4.7% bytes (136/633, 4,252/90,272)">
  <title>Decompiled C 21.5% functions, 4.7% bytes (136/633, 4,252/90,272)</title>
  <rect width="760" height="268" rx="6" fill="#ffffff" stroke="#d0d7de"/>
  <text x="16" y="28" font-family='-apple-system,BlinkMacSystemFont,Segoe UI,Helvetica,Arial,sans-serif' font-size="16" font-weight="600" fill="#1f2328">Decompiled C vs original</text>
  <text x="744" y="28" text-anchor="end" font-family='ui-monospace,SFMono-Regular,Menlo,Consolas,monospace' font-size="16" font-weight="700" fill="#1a7f37">21.5%</text>
  <text x="16" y="70" font-family='-apple-system,BlinkMacSystemFont,Segoe UI,Helvetica,Arial,sans-serif' font-size="13" fill="#1f2328">Decompiled C — functions</text><rect x="200.00" y="56.00" width="460.00" height="18.00" rx="4" fill="#eaeef2"/><rect x="200.00" y="56.00" width="98.90" height="18.00" rx="4" fill="#1a7f37"/><text x="744" y="70" text-anchor="end" font-family='ui-monospace,SFMono-Regular,Menlo,Consolas,monospace' font-size="13" font-weight="700" fill="#1a7f37">21.5%</text><text x="16" y="100" font-family='-apple-system,BlinkMacSystemFont,Segoe UI,Helvetica,Arial,sans-serif' font-size="13" fill="#1f2328">Decompiled C — bytes</text><rect x="200.00" y="86.00" width="460.00" height="18.00" rx="4" fill="#eaeef2"/><rect x="200.00" y="86.00" width="21.62" height="18.00" rx="4" fill="#1a7f37"/><text x="744" y="100" text-anchor="end" font-family='ui-monospace,SFMono-Regular,Menlo,Consolas,monospace' font-size="13" font-weight="700" fill="#1a7f37">4.7%</text><text x="16" y="130" font-family='-apple-system,BlinkMacSystemFont,Segoe UI,Helvetica,Arial,sans-serif' font-size="13" fill="#1f2328">Not opcode — functions</text><rect x="200.00" y="116.00" width="460.00" height="18.00" rx="4" fill="#eaeef2"/><rect x="200.00" y="116.00" width="207.92" height="18.00" rx="4" fill="#0969da"/><text x="744" y="130" text-anchor="end" font-family='ui-monospace,SFMono-Regular,Menlo,Consolas,monospace' font-size="13" font-weight="700" fill="#0969da">45.2%</text><text x="16" y="160" font-family='-apple-system,BlinkMacSystemFont,Segoe UI,Helvetica,Arial,sans-serif' font-size="13" fill="#1f2328">Not opcode — bytes</text><rect x="200.00" y="146.00" width="460.00" height="18.00" rx="4" fill="#eaeef2"/><rect x="200.00" y="146.00" width="212.52" height="18.00" rx="4" fill="#0969da"/><text x="744" y="160" text-anchor="end" font-family='ui-monospace,SFMono-Regular,Menlo,Consolas,monospace' font-size="13" font-weight="700" fill="#0969da">46.2%</text><text x="16" y="200" font-family='-apple-system,BlinkMacSystemFont,Segoe UI,Helvetica,Arial,sans-serif' font-size="13" fill="#1f2328">Function mix</text><rect x="200.00" y="186.00" width="460.00" height="18.00" rx="4" fill="#eaeef2"/><rect x="200.00" y="186.00" width="98.83" height="18.00" fill="#1a7f37"/><rect x="298.83" y="186.00" width="109.00" height="18.00" fill="#0969da"/><rect x="407.84" y="186.00" width="252.16" height="18.00" fill="#8c959f"/><text x="16" y="230" font-family='-apple-system,BlinkMacSystemFont,Segoe UI,Helvetica,Arial,sans-serif' font-size="13" fill="#1f2328">Byte mix</text><rect x="200.00" y="216.00" width="460.00" height="18.00" rx="4" fill="#eaeef2"/><rect x="200.00" y="216.00" width="21.67" height="18.00" fill="#1a7f37"/><rect x="221.67" y="216.00" width="190.65" height="18.00" fill="#0969da"/><rect x="412.32" y="216.00" width="247.68" height="18.00" fill="#8c959f"/>
  <rect x="200" y="241" width="10" height="10" rx="2" fill="#1a7f37"/>
  <text x="216" y="250" font-family='-apple-system,BlinkMacSystemFont,Segoe UI,Helvetica,Arial,sans-serif' font-size="11" fill="#656d76">semantic C 136/633 (21.5%)</text>
  <rect x="400" y="241" width="10" height="10" rx="2" fill="#0969da"/>
  <text x="416" y="250" font-family='-apple-system,BlinkMacSystemFont,Segoe UI,Helvetica,Arial,sans-serif' font-size="11" fill="#656d76">readable Thumb 23.7%</text>
  <rect x="580" y="241" width="10" height="10" rx="2" fill="#8c959f"/>
  <text x="596" y="250" font-family='-apple-system,BlinkMacSystemFont,Segoe UI,Helvetica,Arial,sans-serif' font-size="11" fill="#656d76">opcode 54.8%</text>
</svg>
